<?xml version="1.0" encoding="UTF-8" standalone="no"?>
<!-- Created with Inkscape (http://www.inkscape.org/) -->

<svg
 
   viewBox="0 0 43.965115 54.929794"
   version="1.1"
   id="svg5"
   xml:space="preserve"
   inkscape:version="1.2.2 (732a01da63, 2022-12-09)"
   sodipodi:docname="DatabaseTabIcon.svg"
   xmlns:inkscape="http://www.inkscape.org/namespaces/inkscape"
   xmlns:sodipodi="http://sodipodi.sourceforge.net/DTD/sodipodi-0.dtd"
   xmlns="http://www.w3.org/2000/svg"
   xmlns:svg="http://www.w3.org/2000/svg">
    <g inkscape:label="Layer 1"
       inkscape:groupmode="layer"
       id="layer1"
       transform="translate(-65.064182,-103.72177)">
         <path
       style="fill:#000000;stroke-width:0.5"
       d="m 83.239642,158.58901 c -9.687441,-0.85983 -16.948936,-4.23933 -17.918289,-8.33916 -0.342895,-1.45026 -0.342895,-36.74687 0,-38.19714 0.522614,-2.21037 3.259503,-4.5321 7.082702,-6.00833 4.45218,-1.7191 8.25699,-2.32261 14.642685,-2.32261 5.086479,0 8.075347,0.34028 11.636101,1.32477 5.597799,1.54771 9.427479,4.2071 10.089289,7.00617 0.34289,1.45027 0.34289,36.74688 0,38.19714 -0.836,3.53581 -6.3554,6.59116 -14.20881,7.86552 -2.365645,0.38386 -9.141824,0.66729 -11.323678,0.47364 z m 11.226062,-2.17504 c 6.416316,-1.06933 11.359936,-3.39359 12.736356,-5.98802 l 0.44206,-0.83323 v -16.27074 c 0,-8.94891 -0.0532,-16.27075 -0.11824,-16.27075 -0.065,0 -0.38563,0.28259 -0.71242,0.62797 -4.18788,4.42601 -17.807869,6.63896 -28.523363,4.63441 -4.465128,-0.8353 -8.965768,-2.68998 -10.803846,-4.45221 -0.464767,-0.44559 -0.888199,-0.81017 -0.940959,-0.81017 -0.05276,0 -0.0956,7.31057 -0.0952,16.24571 7.07e-4,15.71165 0.01333,16.27166 0.384012,17.03525 1.430617,2.94701 7.702611,5.59423 15.234123,6.42987 2.822094,0.31312 9.566269,0.12377 12.397477,-0.34809 z m -3.416628,-35.20096 c 8.953834,-0.78217 15.983694,-3.94647 16.503814,-7.42875 0.4952,-3.31546 -4.82859,-6.52555 -13.073816,-7.88311 -11.609454,-1.91148 -25.359838,1.16176 -27.697954,6.19054 -1.819902,3.91421 5.630994,8.18714 15.872814,9.10272 3.27004,0.29233 5.212425,0.29664 8.395142,0.0186 z"
       id="path861" /></g></svg>
