<?xml version="1.0" encoding="UTF-8"?>
<svg version="1.1" xmlns="http://www.w3.org/2000/svg" width="512" height="512">
<path d="M0 0 C52.14 0 104.28 0 158 0 C158 52.14 158 104.28 158 158 C105.86 158 53.72 158 0 158 C0 105.86 0 53.72 0 0 Z " fill="#60AFE2" transform="translate(354,354)"/>
<path d="M0 0 C52.14 0 104.28 0 158 0 C158 52.14 158 104.28 158 158 C105.86 158 53.72 158 0 158 C0 105.86 0 53.72 0 0 Z " fill="#78C7FA" transform="translate(0,354)"/>
<path d="M0 0 C52.14 0 104.28 0 158 0 C158 52.14 158 104.28 158 158 C105.86 158 53.72 158 0 158 C0 105.86 0 53.72 0 0 Z " fill="#60E29A" transform="translate(354,0)"/>
<path d="M0 0 C52.14 0 104.28 0 158 0 C158 52.14 158 104.28 158 158 C105.86 158 53.72 158 0 158 C0 105.86 0 53.72 0 0 Z " fill="#78FA9A" transform="translate(0,0)"/>
<path d="M0 0 C50.82 0 101.64 0 154 0 C154 52.14 154 104.28 154 158 C103.18 158 52.36 158 0 158 C0 105.86 0 53.72 0 0 Z " fill="#5CABDE" transform="translate(179,354)"/>
<path d="M0 0 C52.14 0 104.28 0 158 0 C158 50.82 158 101.64 158 154 C105.86 154 53.72 154 0 154 C0 103.18 0 52.36 0 0 Z " fill="#60E0E2" transform="translate(354,179)"/>
<path d="M0 0 C52.14 0 104.28 0 158 0 C158 50.82 158 101.64 158 154 C105.86 154 53.72 154 0 154 C0 103.18 0 52.36 0 0 Z " fill="#A0FA78" transform="translate(0,179)"/>
<path d="M0 0 C50.82 0 101.64 0 154 0 C154 52.14 154 104.28 154 158 C103.18 158 52.36 158 0 158 C0 105.86 0 53.72 0 0 Z " fill="#5CDE96" transform="translate(179,0)"/>
<path d="M0 0 C50.82 0 101.64 0 154 0 C154 50.82 154 101.64 154 154 C103.18 154 52.36 154 0 154 C0 103.18 0 52.36 0 0 Z " fill="#5CDCDE" transform="translate(179,179)"/>
</svg>
