<?xml version="1.0" encoding="UTF-8" standalone="no"?>
<svg
   viewBox="0 0 16 16"
   version="1.1"
   id="svg16"
   sodipodi:docname="Database.svg"
   inkscape:version="1.2.2 (732a01da63, 2022-12-09)"
   xmlns:inkscape="http://www.inkscape.org/namespaces/inkscape"
   xmlns:sodipodi="http://sodipodi.sourceforge.net/DTD/sodipodi-0.dtd"
   xmlns="http://www.w3.org/2000/svg"
   xmlns:svg="http://www.w3.org/2000/svg">
  <sodipodi:namedview
     id="namedview18"
     pagecolor="#ffffff"
     bordercolor="#000000"
     borderopacity="0.25"
     inkscape:showpageshadow="2"
     inkscape:pageopacity="0.0"
     inkscape:pagecheckerboard="0"
     inkscape:deskcolor="#d1d1d1"
     showgrid="true"
     inkscape:zoom="29.5"
     inkscape:cx="3.5084746"
     inkscape:cy="12.525424"
     inkscape:window-width="1920"
     inkscape:window-height="1112"
     inkscape:window-x="-8"
     inkscape:window-y="-8"
     inkscape:window-maximized="1"
     inkscape:current-layer="svg16">
    <inkscape:grid
       type="xygrid"
       id="grid261" />
  </sodipodi:namedview>
  <defs
     id="defs4">
    <style
       id="style2">.canvas{fill: none; opacity: 0;}.light-lightblue-10{fill: #0077a0; opacity: 0.1;}.light-lightblue{fill: #0077a0; opacity: 1;}</style>
  </defs>
  <title
     id="title6">IconLightDatabase</title>
  <g
     id="level-1"
     transform="matrix(1.4414771,0,0,1.1957007,-3.7561514,-1.0770567)"
     style="fill:#000000">
    <path
       class="light-lightblue"
       d="m 13,3.0172228 v 9.0775032 c 0,1.385832 -2.508275,2.017222 -4.8384926,2.017222 -2.330218,0 -4.8384926,-0.63139 -4.8384926,-2.017222 V 3.0172228 c 0,0.5345641 0.375467,0.9561636 0.9676985,1.2728676 v 7.8046356 c 0,0.235006 1.2067201,1.008611 3.8707941,1.008611 2.6640736,0 3.8707936,-0.773605 3.8707936,-1.008611 V 4.2900904 C 12.624533,3.9733864 13,3.5517869 13,3.0172228 Z m 0,0 C 13,1.6313907 10.491725,1 8.1615074,1 5.8312894,1 3.3230148,1.6313907 3.3230148,3.0172228 c 0,1.3858321 2.5082746,2.0172228 4.8384926,2.0172228 C 10.491725,5.0344456 13,4.4030549 13,3.0172228 Z m -0.967699,0 c 0,0.2592132 -1.330585,1.0086114 -3.8707936,1.0086114 -2.5402086,0 -3.8707941,-0.7493982 -3.8707941,-1.0086114 0,-0.2592131 1.3305855,-1.0086114 3.8707941,-1.0086114 2.5402086,0 3.8707936,0.7493983 3.8707936,1.0086114 z"
       id="path13"
       style="fill:#000000;stroke-width:0.987943"
       inkscape:label="iconPath" />
  </g>
</svg>
