<?xml version="1.0" encoding="UTF-8" standalone="no"?>
<svg
   viewBox="0 0 16 16"
   version="1.1"
   id="svg319"
   sodipodi:docname="DatabaseFile.svg"
   inkscape:version="1.2.2 (732a01da63, 2022-12-09)"
   xmlns:inkscape="http://www.inkscape.org/namespaces/inkscape"
   xmlns:sodipodi="http://sodipodi.sourceforge.net/DTD/sodipodi-0.dtd"
   xmlns="http://www.w3.org/2000/svg"
   xmlns:svg="http://www.w3.org/2000/svg">
  <sodipodi:namedview
     id="namedview321"
     pagecolor="#ffffff"
     bordercolor="#000000"
     borderopacity="0.25"
     inkscape:showpageshadow="2"
     inkscape:pageopacity="0.0"
     inkscape:pagecheckerboard="0"
     inkscape:deskcolor="#d1d1d1"
     showgrid="true"
     inkscape:zoom="41.7193"
     inkscape:cx="8.4493268"
     inkscape:cy="9.4560551"
     inkscape:window-width="1920"
     inkscape:window-height="1112"
     inkscape:window-x="-8"
     inkscape:window-y="-8"
     inkscape:window-maximized="1"
     inkscape:current-layer="svg319">
    <inkscape:grid
       type="xygrid"
       id="grid334" />
  </sodipodi:namedview>
  <defs
     id="defs299">
    <style
       id="style297">.canvas{fill: none; opacity: 0;}.light-defaultgrey-10{fill: #212121; opacity: 0.1;}.light-defaultgrey{fill: #212121; opacity: 1;}.light-lightblue-10{fill: #0077a0; opacity: 0.1;}.light-lightblue{fill: #0077a0; opacity: 1;}.cls-1{opacity:0.75;}</style>
  </defs>
  <title
     id="title301">DatabaseFile</title>
  <path
     class="light-defaultgrey"
     d="m 15.958788,4.0342249 v 7.8901491 l -0.565917,0.563582 h -5.09325 v -1.127164 h 4.527333 V 4.597807 h -3.3955 V 1.2163147 H 5.7722872 V 5.7779478 C 5.4101005,5.74526 5.0354637,5.7249711 4.6404538,5.7249711 V 0.65273268 L 5.2063705,0.08915063 h 6.7910005 l 0.400669,0.1600573 3.3955,3.38149227 z"
     id="path308"
     style="fill:#000000;stroke-width:1.1295" />
  <g
     id="level-1"
     style="fill:#000000"
     transform="matrix(1.2426934,0,0,1.2418374,-1.1295732,-2.6448019)">
    <path
       class="light-lightblue"
       d="M 5,7 C 3.073,7 1,7.567 1,8.812 v 4.376 C 1,14.433 3.073,15 5,15 6.927,15 9,14.433 9,13.188 V 8.812 C 9,7.567 6.927,7 5,7 Z M 5,8 C 6.969,8 8,8.6 8,8.812 8,9.024 6.969,9.625 5,9.625 3.031,9.625 2,9.025 2,8.812 2,8.599 3.031,8 5,8 Z m 0,6 C 3.031,14 2,13.4 2,13.188 v -3.137 a 7.2,7.2 0 0 0 3,0.574 7.2,7.2 0 0 0 3,-0.574 v 3.137 C 8,13.4 6.969,14 5,14 Z"
       id="path316"
       style="fill:#000000" />
  </g>
</svg>
