<?xml version="1.0" encoding="UTF-8" standalone="no"?>
<svg
   version="1.1"
   width="3200"
   height="512"
   id="svg20"
   sodipodi:docname="logo.svg"
   inkscape:version="1.2.2 (732a01da63, 2022-12-09)"
   xmlns:inkscape="http://www.inkscape.org/namespaces/inkscape"
   xmlns:sodipodi="http://sodipodi.sourceforge.net/DTD/sodipodi-0.dtd"
   xmlns:xlink="http://www.w3.org/1999/xlink"
   xmlns="http://www.w3.org/2000/svg"
   xmlns:svg="http://www.w3.org/2000/svg">
  <defs
     id="defs24">
    <linearGradient
       inkscape:collect="always"
       id="linearGradient7678">
      <stop
         style="stop-color:#000000;stop-opacity:1;"
         offset="0"
         id="stop7674" />
      <stop
         style="stop-color:#000000;stop-opacity:0;"
         offset="0.35882354"
         id="stop7676" />
    </linearGradient>
    <linearGradient
       inkscape:collect="always"
       xlink:href="#linearGradient7678"
       id="linearGradient7680"
       x1="568.31909"
       y1="251.42509"
       x2="2383.8386"
       y2="251.42509"
       gradientUnits="userSpaceOnUse" />
  </defs>
  <sodipodi:namedview
     id="namedview22"
     pagecolor="#ffffff"
     bordercolor="#000000"
     borderopacity="0.25"
     inkscape:showpageshadow="2"
     inkscape:pageopacity="0.0"
     inkscape:pagecheckerboard="0"
     inkscape:deskcolor="#d1d1d1"
     showgrid="false"
     inkscape:zoom="0.4609375"
     inkscape:cx="2708.6102"
     inkscape:cy="710.50847"
     inkscape:window-width="6400"
     inkscape:window-height="1712"
     inkscape:window-x="-8"
     inkscape:window-y="-8"
     inkscape:window-maximized="1"
     inkscape:current-layer="svg20" />
  <path
     d="m 354,354 c 52.14,0 104.28,0 158,0 0,52.14 0,104.28 0,158 -52.14,0 -104.28,0 -158,0 0,-52.14 0,-104.28 0,-158 z"
     fill="#60afe2"
     id="path2" />
  <path
     d="m 0,354 c 52.14,0 104.28,0 158,0 0,52.14 0,104.28 0,158 -52.14,0 -104.28,0 -158,0 0,-52.14 0,-104.28 0,-158 z"
     fill="#78c7fa"
     id="path4" />
  <path
     d="m 354,0 c 52.14,0 104.28,0 158,0 0,52.14 0,104.28 0,158 -52.14,0 -104.28,0 -158,0 0,-52.14 0,-104.28 0,-158 z"
     fill="#60e29a"
     id="path6" />
  <path
     d="m 0,0 c 52.14,0 104.28,0 158,0 0,52.14 0,104.28 0,158 -52.14,0 -104.28,0 -158,0 C 0,105.86 0,53.72 0,0 Z"
     fill="#78fa9a"
     id="path8" />
  <path
     d="m 179,354 c 50.82,0 101.64,0 154,0 0,52.14 0,104.28 0,158 -50.82,0 -101.64,0 -154,0 0,-52.14 0,-104.28 0,-158 z"
     fill="#5cabde"
     id="path10" />
  <path
     d="m 354,179 c 52.14,0 104.28,0 158,0 0,50.82 0,101.64 0,154 -52.14,0 -104.28,0 -158,0 0,-50.82 0,-101.64 0,-154 z"
     fill="#60e0e2"
     id="path12" />
  <path
     d="m 0,179 c 52.14,0 104.28,0 158,0 0,50.82 0,101.64 0,154 -52.14,0 -104.28,0 -158,0 0,-50.82 0,-101.64 0,-154 z"
     fill="#a0fa78"
     id="path14" />
  <path
     d="m 179,0 c 50.82,0 101.64,0 154,0 0,52.14 0,104.28 0,158 -50.82,0 -101.64,0 -154,0 0,-52.14 0,-104.28 0,-158 z"
     fill="#5cde96"
     id="path16" />
  <path
     d="m 179,179 c 50.82,0 101.64,0 154,0 0,50.82 0,101.64 0,154 -50.82,0 -101.64,0 -154,0 0,-50.82 0,-101.64 0,-154 z"
     fill="#5cdcde"
     id="path18" />
  <text
     xml:space="preserve"
     style="font-size:192px;opacity:0.2;fill:#000000;stroke-width:2.4"
     x="559.93268"
     y="188.68965"
     id="text7485"><tspan
       sodipodi:role="line"
       id="tspan7483"
       x="559.93268"
       y="188.68965" /></text>
  <text
     xml:space="preserve"
     style="font-size:380px;opacity:1;fill:#666666;fill-opacity:1;stroke-width:2.4"
     x="620.07092"
     y="384.68546"
     id="text7599"><tspan
       sodipodi:role="line"
       id="tspan7597"
       x="620.07092"
       y="384.68546"
       style="font-style:normal;font-variant:normal;font-weight:normal;font-stretch:normal;font-size:380px;font-family:Dubai;-inkscape-font-specification:Dubai;fill:#666666;fill-opacity:1">Internals Viewer</tspan></text>
</svg>
